<svg xmlns="http://www.w3.org/2000/svg" width="295.5" height="49.448" viewBox="0 0 295.5 49.448">
  <g id="eutogen_logo" data-name="eutogen logo" transform="translate(0.02 0.021)">
    <path id="Path_17" data-name="Path 17" d="M391.03,88.486a2.51,2.51,0,0,1-2.51-2.51V76.84a2.51,2.51,0,0,1,2.51-2.51H400.6a2.475,2.475,0,0,1,2.51,2.51v2.078H399.78v-1.24h-7.916v7.48h7.9v-1.25h3.328v2.083a2.51,2.51,0,0,1-2.51,2.51Z" transform="translate(-196.349 -40.245)" fill="#17bebb"/>
    <path id="Path_18" data-name="Path 18" d="M432.751,74.37l6.8,14.136h-3.639l-1.436-2.912h-7.148l-1.39,2.912H422.3l6.606-14.136Zm-3.835,7.9h3.9l-1.978-4.016Z" transform="translate(-213.172 -40.266)" fill="#17bebb"/>
    <path id="Path_19" data-name="Path 19" d="M464.7,88.506H461.37V74.37H472.6a2.435,2.435,0,0,1,1.767.723,2.4,2.4,0,0,1,.733,1.767v3.75a2.51,2.51,0,0,1-2.51,2.51H464.7Zm0-8.735h7.073V77.7H464.7Z" transform="translate(-232.629 -40.265)" fill="#17bebb"/>
    <path id="Path_20" data-name="Path 20" d="M493.51,74.37h3.328V88.506H493.51Z" transform="translate(-248.635 -40.266)" fill="#17bebb"/>
    <path id="Path_21" data-name="Path 21" d="M519.031,74.37V77.7h-5.406V88.506H510.3V77.7H504.89V74.37Z" transform="translate(-254.303 -40.266)" fill="#17bebb"/>
    <path id="Path_22" data-name="Path 22" d="M538.366,74.37l6.792,14.136h-3.649l-1.441-2.912H532.94l-1.391,2.912H527.91l6.611-14.136Zm-3.835,7.9h3.89l-1.973-4.016Z" transform="translate(-265.767 -40.266)" fill="#17bebb"/>
    <path id="Path_23" data-name="Path 23" d="M570.343,74.37V85.178h9.568v3.328H567V74.37Z" transform="translate(-285.234 -40.266)" fill="#17bebb"/>
    <path id="Path_24" data-name="Path 24" d="M173.734,18.06h21.485l-2.1,6.892a5.211,5.211,0,0,1-4.95,3.659H171.209l-.452,1.506h20.767l-.773,2.47a2.881,2.881,0,0,1-2.781,2.073H168.749a2.917,2.917,0,0,1-2.781-3.755l2.816-9.156a5.16,5.16,0,0,1,4.95-3.69Zm15.175,4.518H173.051l-.452,1.506h15.5a.944.944,0,0,0,.939-.678l.125-.422a.281.281,0,0,0-.256-.392Z" transform="translate(-85.454 -12.222)" fill="#084b83"/>
    <path id="Path_25" data-name="Path 25" d="M238.306,6.41l10.808,22.479h-5.783l-2.289-4.613h-11.36L227.468,28.9H221.69l10.5-22.494Zm-6.094,12.55h6.2l-3.142-6.35Z" transform="translate(-113.266 -6.421)" fill="#084b83"/>
    <path id="Path_26" data-name="Path 26" d="M287.836,28.889a4.016,4.016,0,0,1-3.966-3.966V6.41h5.3V23.6h11.9V6.41h5.291V24.923a3.966,3.966,0,0,1-3.966,3.966Z" transform="translate(-144.232 -6.421)" fill="#084b83"/>
    <path id="Path_27" data-name="Path 27" d="M358.694,6.41v5.316H350.1V28.889h-5.3V11.726H336.21V6.41Z" transform="translate(-170.298 -6.421)" fill="#084b83"/>
    <path id="Path_28" data-name="Path 28" d="M392.515,28.878a4.016,4.016,0,0,1-3.966-3.966V10.355a3.835,3.835,0,0,1,1.17-2.811,3.8,3.8,0,0,1,2.8-1.155h14.558a3.941,3.941,0,0,1,3.966,3.966V24.913a3.966,3.966,0,0,1-3.966,3.966Zm1.33-5.291h11.892V11.715H393.846Z" transform="translate(-196.364 -6.41)" fill="#084b83"/>
    <path id="Path_29" data-name="Path 29" d="M444.855,28.878a4.016,4.016,0,0,1-3.966-3.966V10.355a3.835,3.835,0,0,1,1.17-2.811,3.8,3.8,0,0,1,2.8-1.155h15.215a3.941,3.941,0,0,1,3.966,3.966v3.3h-5.3V11.715h-12.55v11.9h12.55V20.284h-7.254V14.993h12.55v9.919a3.966,3.966,0,0,1-3.966,3.966Z" transform="translate(-222.43 -6.41)" fill="#17bebb"/>
    <path id="Path_30" data-name="Path 30" d="M494.55,6.41h22.484v5.316H494.55Zm0,8.594h22.484v5.291H494.55Zm0,8.594h22.484v5.291H494.55Z" transform="translate(-249.153 -6.421)" fill="#17bebb"/>
    <path id="Path_31" data-name="Path 31" d="M570.7,6.41V28.889h-5.974L552.181,14.236V28.889H546.89V6.41h5.974l12.55,14.658V6.41Z" transform="translate(-275.219 -6.421)" fill="#17bebb"/>
    <path id="Path_32" data-name="Path 32" d="M41.366,31.183v-.346h.05V30.8c.05-.1.1-.146.151-.246l10.356-13.81H29.178L18.325,31.133,29.178,45.555l33.8-6.25a.833.833,0,0,1,.648.246.843.843,0,0,1,.281.387,1,1,0,0,1,.035.537.869.869,0,0,1-.171.366,1,1,0,0,1-.592.4L24.716,55.8c-.045.05-.1.05-.2.05a.427.427,0,0,1-.246-.05.934.934,0,0,1-.547-.346L5.831,31.73a1.089,1.089,0,0,1-.151-.793.934.934,0,0,1,.151-.4l17.9-23.734A.934.934,0,0,1,24.4,6.46a.176.176,0,0,0,.1-.05H70.637a1.1,1.1,0,0,1,.889.542A1.1,1.1,0,0,1,71.43,8L64.593,28.4a1.039,1.039,0,0,1-.793.4L42.355,32.127h-.1a.954.954,0,0,1-.5-.151v-.05h-.05v-.045h-.05v-.05h-.05v-.025h-.045v-.05h-.05v-.05h-.04v-.1h-.05v-.146h-.05v-.251Z" transform="translate(-5.68 -6.421)" fill="#084b83"/>
  </g>
</svg>
