<svg id="Layer_1" data-name="Layer 1" xmlns="http://www.w3.org/2000/svg" viewBox="0 0 588.64 98.51"><defs><style>.cls-1{fill:#17bebb;}.cls-2{fill:#084b83;}</style></defs><path class="cls-1" d="M393.52,102.53a5,5,0,0,1-5-5V79.33a5,5,0,0,1,5-5h19.06a4.93,4.93,0,0,1,5,5v4.14h-6.63V81H395.18V95.9h15.74V93.41h6.63v4.15a5,5,0,0,1-5,5Z" transform="translate(-5.68 -6.41)"/><path class="cls-1" d="M443.12,74.37l13.54,28.16h-7.25l-2.86-5.8H432.31l-2.77,5.8H422.3l13.16-28.16ZM435.48,90.1h7.76l-3.94-8Z" transform="translate(-5.68 -6.41)"/><path class="cls-1" d="M468,102.53h-6.63V74.37h22.37a4.85,4.85,0,0,1,3.52,1.44,4.79,4.79,0,0,1,1.46,3.52V86.8a5,5,0,0,1-5,5H468Zm0-17.4h14.09V81H468Z" transform="translate(-5.68 -6.41)"/><path class="cls-1" d="M493.51,74.37h6.63v28.16h-6.63Z" transform="translate(-5.68 -6.41)"/><path class="cls-1" d="M533.06,74.37V81H522.29v21.53h-6.63V81H504.89V74.37Z" transform="translate(-5.68 -6.41)"/><path class="cls-1" d="M548.74,74.37l13.53,28.16H555l-2.87-5.8H537.93l-2.77,5.8h-7.25l13.17-28.16ZM541.1,90.1h7.75l-3.93-8Z" transform="translate(-5.68 -6.41)"/><path class="cls-1" d="M573.66,74.37V95.9h19.06v6.63H567V74.37Z" transform="translate(-5.68 -6.41)"/><path class="cls-2" d="M181.56,18.06h42.8l-4.19,13.73a10.38,10.38,0,0,1-9.86,7.29H176.53l-.9,3H217L215.46,47a5.74,5.74,0,0,1-5.54,4.13H171.63a5.81,5.81,0,0,1-5.54-7.48l5.61-18.24A10.28,10.28,0,0,1,181.56,18.06Zm30.23,9H180.2l-.9,3h30.88a1.88,1.88,0,0,0,1.87-1.35l.25-.84A.56.56,0,0,0,211.79,27.09Z" transform="translate(-5.68 -6.41)"/><path class="cls-2" d="M254.79,6.41l21.53,44.78H264.8L260.24,42H237.61l-4.41,9.22H221.69L242.61,6.41Zm-12.14,25H255l-6.26-12.65Z" transform="translate(-5.68 -6.41)"/><path class="cls-2" d="M291.77,51.19a8,8,0,0,1-7.9-7.9V6.41h10.55V40.65h23.7V6.41h10.54V43.29a7.9,7.9,0,0,1-7.9,7.9Z" transform="translate(-5.68 -6.41)"/><path class="cls-2" d="M381,6.41V17H363.88V51.19H353.33V17H336.21V6.41Z" transform="translate(-5.68 -6.41)"/><path class="cls-2" d="M396.45,51.19a8,8,0,0,1-7.9-7.9v-29a7.64,7.64,0,0,1,2.33-5.6,7.56,7.56,0,0,1,5.57-2.3h29a7.85,7.85,0,0,1,7.9,7.9v29a7.9,7.9,0,0,1-7.9,7.9Zm2.65-10.54h23.69V17H399.1Z" transform="translate(-5.68 -6.41)"/><path class="cls-1" d="M448.79,51.19a8,8,0,0,1-7.9-7.9v-29a7.64,7.64,0,0,1,2.33-5.6,7.56,7.56,0,0,1,5.57-2.3H479.1a7.85,7.85,0,0,1,7.9,7.9v6.58H476.45V17h-25v23.7h25V34.07H462V23.53h25V43.29a7.9,7.9,0,0,1-7.9,7.9Z" transform="translate(-5.68 -6.41)"/><path class="cls-1" d="M494.55,6.41h44.79V17H494.55Zm0,17.12h44.79V34.07H494.55Zm0,17.12h44.79V51.19H494.55Z" transform="translate(-5.68 -6.41)"/><path class="cls-1" d="M594.32,6.41V51.19h-11.9L557.43,22V51.19H546.89V6.41h11.9l25,29.2V6.41Z" transform="translate(-5.68 -6.41)"/><path class="cls-2" d="M76.79,55.76v-.69h.1V55c.1-.19.2-.29.3-.49L97.82,27H52.51L30.89,55.66,52.51,84.39l67.33-12.45a1.66,1.66,0,0,1,1.29.49,1.68,1.68,0,0,1,.56.77,2,2,0,0,1,.07,1.07,1.73,1.73,0,0,1-.34.73,2,2,0,0,1-1.18.79l-76.62,29c-.09.1-.19.1-.39.1a.85.85,0,0,1-.49-.1,1.86,1.86,0,0,1-1.09-.69L6,56.85a2.17,2.17,0,0,1-.3-1.58,1.86,1.86,0,0,1,.3-.79L41.65,7.2A1.86,1.86,0,0,1,43,6.51a.35.35,0,0,0,.2-.1h91.9a2.19,2.19,0,0,1,1.77,1.08,2.19,2.19,0,0,1-.19,2.08L123.06,50.22a2.07,2.07,0,0,1-1.58.79L78.76,57.64h-.19a1.9,1.9,0,0,1-1-.3v-.1h-.1v-.09h-.1v-.1h-.1V57h-.09v-.1h-.1v-.1H77v-.2h-.1v-.29h-.1v-.5Z" transform="translate(-5.68 -6.41)"/></svg>